# xmcd
#
# Track frame offsets:
#	150
#	19009
#	32221
#	43036
#	56184
#	71807
#	89009
#	103510
#	117683
#	138861
#	155847
#	177472
#	190678
#
# Disc length: 2800 seconds
# Revision: 0
# Processed by: cddbd v1.5.2PL0 Copyright (c) Steve Scherf et al.
# Submitted via: dBpowerAMP V12.0
#
DISCID=c10aee0d
DTITLE=Courtney Granger - Beneath Still Waters
DYEAR=2016
DGENRE=Country
TTITLE0=Don't Put Her Down, You Helped Put Her There
TTITLE1=Mr. Fool
TTITLE2=Back in My Baby's Arms Again
TTITLE3=Beneath Still Waters
TTITLE4=Listen They're Playing My Song
TTITLE5=Baby That's Cold
TTITLE6=Warm Red Wine
TTITLE7=Lovin' on Back Streets
TTITLE8=What Are They Doing In Heaven Today
TTITLE9=When a Man Can't Get a Woman Off His Mind
TTITLE10=Dance With Me Molly
TTITLE11=She Never Got Me Over You
TTITLE12=My New Year Starts Today
EXTD=
EXTT0=
EXTT1=
EXTT2=
EXTT3=
EXTT4=
EXTT5=
EXTT6=
EXTT7=
EXTT8=
EXTT9=
EXTT10=
EXTT11=
EXTT12=
PLAYORDER=
